<?xml version="1.0" standalone="no"?>
<!DOCTYPE svg PUBLIC "-//W3C//DTD SVG 20010904//EN"
 "http://www.w3.org/TR/2001/REC-SVG-20010904/DTD/svg10.dtd">
<svg version="1.0" xmlns="http://www.w3.org/2000/svg"
 width="300.000000pt" height="300.000000pt" viewBox="0 0 300.000000 300.000000"
 preserveAspectRatio="xMidYMid meet">
<metadata>
Created by potrace 1.10, written by Peter Selinger 2001-2011
</metadata>
<g transform="translate(0.000000,300.000000) scale(0.100000,-0.100000)"
fill="#000000" stroke="none">
<path d="M1440 2973 c3 -105 -5 -243 -14 -243 -7 0 -8 -3 -1 -8 13 -9 13 -35
0 -44 -6 -5 -6 -11 2 -19 7 -7 8 -21 3 -39 -5 -16 -6 -31 -3 -34 10 -9 1 -219
-10 -263 -3 -13 -1 -23 5 -23 7 0 7 -4 1 -12 -6 -7 -9 -26 -7 -43 2 -16 1 -24
-3 -17 -4 10 -9 7 -17 -9 -7 -14 -24 -26 -44 -30 -17 -3 -38 -11 -45 -18 -8
-6 -17 -8 -20 -4 -4 3 -16 -2 -27 -12 -10 -9 -26 -15 -35 -12 -10 4 -15 1 -15
-10 0 -9 -3 -14 -6 -10 -4 3 -19 0 -34 -8 -15 -8 -39 -16 -52 -19 -14 -2 -35
-9 -47 -15 -11 -6 -30 -16 -41 -21 -12 -6 -25 -8 -29 -5 -5 3 -11 -2 -15 -10
-3 -8 -16 -15 -28 -15 -26 0 -83 54 -73 70 3 5 2 10 -2 10 -5 0 -20 11 -35 25
-34 31 -67 39 -103 24 -17 -7 -33 -12 -37 -11 -5 1 -8 -5 -8 -13 0 -9 -6 -18
-14 -21 -14 -5 -14 -14 0 -66 3 -13 7 -32 7 -43 1 -11 6 -23 10 -26 5 -4 10
-24 11 -45 3 -54 8 -66 35 -90 15 -14 21 -27 16 -34 -5 -8 -4 -11 2 -7 6 4 10
-10 11 -33 1 -22 -3 -41 -8 -41 -20 -3 -25 -4 -37 -12 -7 -5 -13 -6 -13 -4 0
3 -16 1 -36 -3 -33 -8 -38 -6 -68 28 -17 19 -30 40 -28 46 2 6 0 8 -4 4 -4 -4
-21 15 -39 42 -18 27 -35 47 -38 44 -3 -4 -12 6 -19 22 -7 16 -27 44 -45 63
-18 19 -30 38 -27 43 3 4 -1 5 -9 2 -8 -3 -23 5 -33 19 -11 13 -25 22 -32 19
-6 -2 -12 2 -12 8 0 9 -10 10 -32 5 -18 -4 -39 -7 -45 -8 -7 0 -13 -5 -13 -11
0 -6 -5 -4 -10 4 -8 12 -10 11 -10 -7 0 -12 -7 -28 -15 -36 -22 -22 -16 -83
11 -112 13 -14 21 -25 18 -25 -3 0 1 -7 8 -15 23 -25 33 -39 46 -66 8 -14 23
-37 35 -51 30 -35 87 -116 88 -126 0 -4 6 -10 14 -14 7 -5 12 -23 11 -42 -1
-19 1 -33 3 -30 6 6 46 -59 43 -70 -2 -5 4 -6 13 -2 18 7 95 -65 95 -89 0 -14
-57 -38 -71 -29 -5 3 -9 1 -9 -5 0 -8 -13 -8 -63 2 -12 2 -41 23 -69 50 -10 9
-19 17 -21 16 -6 -2 -63 27 -69 35 -3 5 -14 11 -24 12 -9 2 -21 8 -25 15 -4 8
-20 14 -36 15 -15 1 -30 3 -33 4 -16 8 -38 3 -62 -13 -16 -10 -31 -16 -36 -13
-13 8 -8 -92 6 -105 6 -7 12 -19 12 -26 0 -7 5 -13 11 -13 6 0 8 -7 5 -16 -4
-12 -2 -15 9 -11 8 4 21 0 29 -8 7 -8 16 -11 20 -8 3 4 6 1 6 -5 0 -6 7 -9 17
-5 11 4 14 3 9 -5 -4 -7 -3 -12 1 -12 5 0 20 -11 34 -24 25 -23 66 -42 82 -38
4 1 7 -2 7 -8 0 -5 7 -10 15 -10 8 0 14 -3 13 -7 -2 -5 1 -9 6 -10 5 -1 17
-14 27 -29 22 -34 98 -86 116 -80 7 3 15 1 18 -4 3 -5 18 -7 34 -4 33 7 53
-22 23 -33 -9 -4 -21 -11 -27 -15 -5 -5 -23 -20 -40 -34 -16 -13 -49 -34 -72
-46 -24 -12 -43 -27 -43 -34 0 -7 -7 -20 -16 -28 -8 -9 -11 -16 -5 -16 6 0 11
-9 11 -20 0 -11 6 -20 14 -20 8 0 16 -4 18 -10 3 -10 100 -50 128 -53 8 -1 18
-6 22 -12 5 -6 8 -5 8 3 0 7 5 10 10 7 12 -7 40 12 40 27 0 5 -6 3 -14 -4 -15
-16 -69 -16 -89 0 -7 5 -23 12 -37 15 -30 8 -80 52 -80 72 0 14 46 55 62 55 6
0 27 13 47 28 37 29 67 45 113 62 16 5 28 16 28 24 0 24 -55 56 -106 61 -72 7
-85 13 -134 64 -25 25 -72 60 -105 78 -121 64 -213 152 -215 204 0 9 9 24 20
34 33 30 92 15 195 -49 50 -31 109 -65 133 -77 l43 -20 90 23 90 24 -56 64
c-58 67 -62 75 -42 84 6 3 2 3 -11 0 -14 -3 -33 3 -52 16 -24 17 -30 29 -30
58 -1 28 -12 52 -45 97 -24 33 -66 92 -94 132 -27 40 -60 87 -74 105 -36 48
-42 75 -22 104 25 39 59 47 103 25 40 -21 80 -66 189 -211 105 -141 99 -137
186 -117 39 10 82 17 95 17 27 0 27 11 3 81 -29 83 -43 109 -59 109 -11 0 -13
8 -8 34 4 23 0 50 -14 85 -26 67 -25 96 2 115 51 36 106 4 154 -88 l28 -54 46
18 c25 9 108 43 185 75 77 31 176 70 220 86 l80 28 2 43 c1 24 4 97 7 163 3
66 8 229 11 363 6 217 5 242 -9 242 -11 0 -16 -9 -16 -27z"/>
<path d="M1498 2986 c8 -14 12 -87 3 -82 -3 2 -5 -50 -4 -115 2 -94 0 -119
-10 -113 -9 5 -9 4 1 -7 6 -7 12 -21 12 -32 0 -12 -4 -16 -12 -11 -10 6 -10 4
0 -7 16 -17 17 -93 0 -83 -7 5 -8 3 -3 -6 4 -7 9 -51 9 -97 1 -67 -2 -82 -13
-78 -10 4 -11 2 -3 -7 14 -18 13 -90 -1 -81 -7 4 -6 -1 2 -10 7 -9 11 -28 9
-41 -5 -23 17 -46 44 -46 10 0 9 3 -1 9 -15 10 -26 161 -12 161 5 0 6 12 4 28
-3 15 -4 34 -4 42 0 8 2 56 3 105 2 50 7 96 11 103 5 6 4 12 -1 12 -16 0 -9
124 7 131 11 4 11 7 0 20 -18 19 -22 39 -8 39 8 0 7 6 -2 17 -8 9 -9 14 -3 10
8 -5 11 3 10 24 0 18 4 34 10 36 7 2 10 -11 8 -37 -1 -22 2 -40 7 -40 6 0 5
-8 -1 -20 -6 -11 -7 -20 -2 -20 5 0 7 -17 5 -37 -6 -68 -6 -87 2 -151 10 -92
11 -212 1 -212 -5 0 -4 -6 1 -12 13 -16 10 -195 -2 -207 -6 -5 -25 -12 -42
-14 -25 -4 -33 -2 -33 10 0 14 -2 14 -18 0 -22 -20 -36 -22 -26 -4 4 7 0 6
-12 -3 -37 -29 -64 -41 -64 -29 0 7 -8 4 -20 -6 -11 -10 -20 -14 -20 -10 0 4
-9 0 -20 -10 -11 -10 -20 -15 -20 -10 0 4 -7 2 -15 -5 -8 -7 -15 -9 -15 -5 0
4 -7 2 -15 -5 -8 -6 -19 -9 -25 -5 -5 3 -13 -1 -16 -10 -4 -9 -12 -14 -20 -11
-7 3 -14 0 -16 -5 -2 -6 -10 -11 -18 -12 -8 -2 -21 -6 -27 -10 -8 -5 -13 -3
-13 4 0 6 -9 1 -20 -12 -13 -16 -19 -19 -20 -10 0 11 -4 10 -13 -4 -8 -10 -19
-15 -25 -11 -7 4 -12 2 -12 -4 0 -6 -6 -10 -12 -9 -7 1 -20 -1 -28 -4 -8 -3
-25 -7 -38 -9 -20 -3 -21 -5 -10 -21 13 -17 19 -17 133 7 66 14 136 27 155 29
19 3 64 10 100 16 56 11 67 16 78 39 6 15 23 39 37 54 14 15 25 32 25 38 0 13
6 13 31 0 10 -6 19 -17 19 -25 0 -8 5 -26 12 -40 l11 -25 23 21 c16 15 22 29
18 43 -3 14 3 32 16 49 19 24 21 36 16 105 -3 42 -9 194 -12 337 -8 313 -11
388 -13 397 0 3 -21 6 -45 5 -28 -1 -42 -5 -38 -11z m62 -41 c0 -7 -6 -15 -14
-18 -9 -4 -13 4 -14 25 -1 24 2 27 14 17 8 -6 14 -17 14 -24z m-180 -856 c0
-7 -8 -18 -17 -26 -12 -10 -13 -12 -3 -8 8 4 6 -1 -4 -9 -11 -9 -25 -16 -30
-17 -17 -1 -48 -6 -81 -12 -16 -4 -37 -2 -45 4 -13 9 -13 10 2 6 9 -3 18 0 21
7 3 7 25 18 48 25 24 7 55 19 69 27 31 16 40 17 40 3z"/>
<path d="M1621 2960 c-2 -53 -2 -56 3 -128 4 -47 2 -61 -7 -55 -9 5 -9 3 0 -8
6 -8 13 -64 15 -136 3 -107 1 -120 -12 -110 -12 9 -11 7 1 -8 12 -16 17 -47
18 -140 3 -144 6 -194 14 -201 9 -9 -30 -47 -41 -40 -10 6 -26 -23 -17 -32 3
-3 5 -1 5 4 0 5 9 10 20 11 11 1 20 -2 20 -6 0 -12 -36 -42 -42 -36 -3 3 -9
-6 -12 -20 -4 -14 -10 -24 -15 -21 -4 3 -13 -6 -20 -20 -6 -14 -15 -23 -20
-20 -5 3 -11 -4 -14 -15 -3 -12 -10 -18 -16 -14 -6 3 -11 0 -11 -7 0 -10 -2
-10 -9 0 -6 10 -10 7 -15 -12 -3 -14 -11 -26 -16 -26 -6 0 -8 -11 -4 -25 3
-14 2 -25 -3 -25 -5 0 -9 -12 -8 -27 0 -17 -5 -27 -12 -26 -7 2 -10 -4 -7 -12
4 -8 1 -15 -5 -15 -6 0 -11 9 -11 20 0 11 -4 20 -10 20 -5 0 -9 -3 -8 -7 6
-24 -33 -128 -44 -118 -3 3 -3 -5 -1 -18 3 -14 0 -28 -6 -31 -6 -4 -11 -16
-11 -27 0 -11 -4 -17 -10 -14 -5 3 -7 0 -4 -9 3 -8 -3 -32 -14 -55 -11 -22
-17 -42 -14 -45 3 -4 20 -6 39 -6 26 0 33 4 33 20 0 35 41 128 70 160 22 24
36 30 69 30 28 0 44 -5 47 -15 5 -13 11 -10 31 11 28 30 62 27 102 -9 l24 -22
-7 29 c-4 15 -10 42 -13 58 -3 17 -23 48 -44 69 -22 22 -39 46 -39 54 0 7 -13
16 -30 20 -31 7 -39 20 -17 28 10 4 10 6 0 6 -21 2 -23 1 -23 -5 1 -9 -45 -42
-52 -37 -14 8 -8 25 7 19 8 -3 15 0 15 7 0 21 38 39 60 27 26 -14 29 -13 23
10 -3 11 -10 20 -15 20 -5 0 3 13 17 29 20 20 34 27 49 23 18 -5 19 -3 8 11
-8 9 -12 22 -9 29 3 8 11 -1 18 -20 8 -17 23 -35 34 -38 23 -6 222 -84 307
-119 l56 -24 11 31 c9 26 8 29 -5 24 -9 -3 -28 3 -44 14 -15 11 -31 20 -35 20
-4 0 -23 10 -43 22 -34 21 -34 22 -13 30 23 8 106 -26 97 -40 -2 -4 3 -8 12
-8 9 -1 24 -4 33 -8 13 -6 25 9 55 69 49 97 92 137 142 133 29 -2 39 -8 46
-29 11 -34 2 -70 -27 -106 -13 -15 -27 -41 -31 -56 -7 -28 -6 -28 18 -12 13 9
27 27 30 41 4 13 15 33 26 44 11 11 15 20 9 20 -6 0 -7 5 -2 13 19 30 10 97
-13 97 -8 0 -14 5 -14 10 0 24 -106 6 -134 -23 -27 -27 -86 -117 -92 -141 -6
-27 -18 -33 -29 -16 -4 6 -10 8 -15 5 -10 -6 -84 37 -95 55 -3 6 -10 8 -14 5
-5 -2 -19 4 -32 15 -12 12 -33 23 -46 26 -12 4 -20 10 -17 15 3 5 -1 9 -9 9
-8 0 -26 9 -41 21 -14 11 -29 18 -34 15 -4 -3 -21 6 -38 19 -23 19 -26 26 -15
34 11 7 11 9 0 13 -10 3 -14 46 -16 188 -1 101 -5 190 -8 198 -3 8 0 21 6 28
6 8 7 14 3 14 -5 0 -10 53 -11 118 -1 64 -2 141 -2 170 -1 37 -5 52 -15 52 -9
0 -14 -14 -15 -40z m96 -817 c21 -10 56 -29 78 -44 22 -14 49 -29 60 -33 11
-3 31 -15 44 -25 l24 -18 -26 -7 c-33 -8 -148 54 -120 66 13 5 14 7 3 7 -16 0
-70 -27 -57 -30 12 -2 26 -6 35 -9 4 -1 11 -2 15 -1 4 1 10 -6 14 -15 3 -8 23
-22 44 -31 40 -16 54 -35 19 -26 -11 3 -20 9 -20 14 0 5 -10 9 -22 9 -25 0
-117 41 -118 52 0 4 12 14 27 21 l27 14 -37 18 c-20 9 -35 21 -32 25 3 5 -5 6
-17 2 -21 -5 -22 -4 -9 11 17 21 21 21 68 0z m-157 -275 c8 -13 13 -26 12 -30
-1 -5 4 -8 11 -8 6 0 22 -15 34 -32 26 -38 16 -50 -36 -43 -17 2 -31 0 -31 -5
0 -5 -17 -7 -38 -4 -25 3 -50 -2 -75 -15 -20 -10 -39 -15 -42 -11 -9 14 17 59
37 66 10 3 16 10 13 15 -4 5 0 12 9 15 8 3 12 12 9 20 -3 8 0 14 5 14 6 0 14
9 17 20 9 28 56 27 75 -2z"/>
<path d="M1460 2087 c0 -21 -34 -69 -42 -61 -3 3 -8 -4 -11 -16 -5 -21 8 -29
16 -7 3 9 7 9 19 0 13 -11 54 -11 65 1 2 2 -7 26 -21 53 -14 27 -25 40 -26 30z"/>
<path d="M2621 2053 c-25 -5 -33 -10 -86 -59 -19 -17 -37 -29 -40 -26 -3 3 -5
-2 -5 -11 0 -9 -4 -17 -10 -17 -5 0 -10 -6 -10 -14 0 -8 -9 -17 -19 -21 -10
-3 -22 -17 -25 -30 -3 -13 -17 -35 -31 -49 -14 -14 -25 -30 -25 -35 0 -17 -42
-51 -62 -51 -11 0 -17 4 -14 8 3 5 -5 8 -17 7 -12 -1 -28 3 -36 9 -11 8 -13 8
-7 -1 4 -7 3 -13 -2 -13 -14 0 -23 28 -11 36 16 10 28 48 18 60 -5 6 -8 20 -8
30 5 46 0 54 -25 44 -13 -5 -27 -6 -30 -3 -3 4 -6 3 -6 -1 0 -3 9 -10 20 -14
20 -7 19 -10 -15 -50 -20 -23 -44 -42 -53 -42 -14 1 -12 5 7 20 29 25 24 25
-28 1 l-42 -18 28 -11 c15 -6 43 -14 62 -18 31 -6 33 -8 18 -19 -16 -11 -15
-13 10 -23 16 -6 59 -18 97 -27 81 -18 81 -18 141 75 58 90 118 164 157 193
78 60 153 38 141 -40 -8 -46 -39 -92 -69 -99 -12 -3 -36 -25 -54 -50 -17 -24
-35 -44 -41 -44 -5 0 -9 -7 -9 -15 0 -27 19 -16 51 32 27 39 33 44 39 28 6
-17 7 -17 12 3 4 12 2 20 -2 17 -5 -3 -12 0 -16 6 -5 8 1 10 20 7 14 -3 26 -1
26 3 0 5 8 17 18 27 19 19 51 82 57 111 4 22 -36 71 -59 71 -9 0 -16 5 -16 10
0 10 -7 11 -49 3z m-391 -227 c0 -8 -9 -16 -20 -19 -11 -3 -20 0 -20 6 0 8 -4
7 -12 -1 -17 -17 -29 -15 -22 3 4 8 17 15 30 15 13 0 24 5 24 11 0 5 5 7 10 4
6 -3 10 -12 10 -19z"/>
<path d="M1650 2005 c0 -6 43 -48 76 -74 16 -12 49 -42 74 -65 28 -27 58 -46
80 -50 48 -9 71 -14 98 -22 14 -4 22 -2 22 5 0 7 11 23 25 37 l26 26 -30 -7
c-20 -4 -42 -1 -62 9 -18 9 -37 16 -43 16 -6 1 -28 9 -50 19 -26 12 -34 21
-25 25 8 3 4 3 -8 0 -12 -3 -30 -1 -40 4 -10 6 -31 15 -47 22 -24 9 -27 13
-15 21 10 7 5 8 -15 3 -21 -5 -27 -4 -22 5 4 6 1 11 -8 11 -9 0 -16 5 -16 10
0 6 -4 10 -10 10 -5 0 -10 -2 -10 -5z"/>
<path d="M1603 1984 c3 -10 8 -29 12 -41 5 -19 3 -22 -11 -16 -12 4 -15 3 -10
-6 5 -7 14 -10 22 -7 15 6 74 -49 74 -70 0 -20 89 -59 103 -45 8 8 -4 25 -43
58 -29 27 -76 70 -103 97 -30 30 -47 42 -44 30z"/>
<path d="M1340 1976 c-20 -18 -84 -30 -74 -13 4 6 -2 4 -13 -5 -22 -20 -48
-24 -37 -7 3 6 -6 3 -22 -7 -27 -19 -28 -19 -21 0 7 18 6 19 -10 4 -10 -8 -36
-19 -58 -22 -22 -4 -48 -10 -59 -13 -13 -3 -16 -1 -11 7 4 7 -5 4 -21 -6 -26
-18 -28 -18 -21 -1 6 17 6 17 -17 0 l-24 -18 25 -55 c14 -30 27 -61 30 -68 3
-8 13 -11 22 -8 9 3 55 17 103 31 90 27 89 27 228 154 30 28 32 31 11 26 -16
-5 -21 -4 -17 4 10 15 3 14 -14 -3z m-84 -68 c5 -8 2 -9 -9 -5 -10 3 -17 2
-17 -3 0 -6 5 -10 11 -10 17 0 -13 -24 -54 -43 -20 -10 -42 -15 -47 -12 -6 3
-10 1 -10 -6 0 -6 -8 -9 -19 -6 -11 3 -22 -1 -25 -8 -11 -29 -76 -2 -84 34 -4
18 16 40 36 40 37 0 164 20 171 26 9 9 40 5 47 -7z"/>
<path d="M1412 1971 c1 -3 -2 -14 -7 -24 -5 -13 -10 -15 -15 -7 -5 8 -10 2
-14 -14 -4 -15 -10 -24 -15 -21 -5 2 -12 -2 -15 -11 -3 -8 -10 -12 -16 -9 -5
3 -10 -1 -10 -9 0 -18 -54 -58 -65 -48 -4 4 -1 -6 6 -21 11 -25 17 -28 42 -23
30 6 56 31 57 53 0 6 13 22 29 35 16 14 31 33 34 44 3 10 8 28 11 40 4 14 2
21 -8 21 -8 0 -14 -3 -14 -6z"/>
<path d="M2685 1920 c-3 -6 -21 -16 -38 -23 -24 -10 -28 -15 -15 -19 17 -7 77
36 66 47 -3 4 -9 1 -13 -5z"/>
<path d="M870 1898 c-26 -17 -32 -18 -21 -5 7 9 9 17 4 17 -13 0 -49 -27 -43
-33 9 -8 129 -13 124 -5 -3 4 0 17 7 29 11 21 10 21 -12 5 -29 -20 -45 -21
-29 -1 17 20 12 19 -30 -7z"/>
<path d="M427 1814 c-15 -14 -25 -29 -22 -34 3 -4 -2 -11 -11 -14 -9 -4 -14
-9 -11 -13 4 -3 18 2 33 12 18 11 23 20 15 24 -8 5 -5 13 9 26 20 18 21 18 14
1 -5 -14 -3 -17 7 -14 16 5 19 30 4 35 -6 2 -23 -8 -38 -23z"/>
<path d="M1844 1795 c-4 -8 -11 -12 -18 -8 -19 11 16 -29 68 -79 27 -26 52
-45 56 -43 4 3 13 25 20 49 11 41 14 44 32 35 16 -9 24 -7 37 6 15 16 14 17
-18 10 -23 -5 -31 -4 -27 4 5 8 0 8 -18 1 -14 -5 -40 -7 -56 -3 -25 4 -28 8
-19 20 10 11 8 12 -16 3 -23 -9 -26 -8 -21 5 3 8 1 15 -5 15 -5 0 -12 -7 -15
-15z"/>
<path d="M1733 1783 c-13 -2 -23 -9 -23 -14 0 -6 -6 -7 -12 -3 -7 4 -6 -1 3
-12 15 -18 30 -75 45 -173 4 -32 2 -46 -7 -52 -10 -6 -6 -9 13 -9 14 0 40 -11
56 -25 35 -29 77 -33 90 -7 5 9 15 43 22 74 10 44 18 58 34 61 14 3 10 5 -11
6 -18 0 -36 7 -40 14 -4 6 -33 35 -64 64 -31 29 -54 55 -50 58 3 4 -8 3 -24
-1 -27 -7 -29 -6 -16 9 7 10 12 16 10 16 -2 -1 -14 -4 -26 -6z m77 -93 c17
-17 30 -27 30 -23 0 4 10 -7 21 -24 12 -18 24 -33 28 -33 13 0 -13 -89 -27
-95 -20 -7 -68 24 -81 52 -22 48 -26 153 -6 153 3 0 19 -14 35 -30z"/>
<path d="M1126 1765 c-3 -10 -12 -15 -20 -12 -8 3 -20 0 -26 -8 -6 -8 -17 -12
-25 -9 -29 11 -27 -13 11 -115 3 -10 29 10 84 64 60 60 76 81 66 87 -8 5 -27
3 -42 -2 -20 -8 -29 -8 -34 0 -5 8 -9 6 -14 -5z m-6 -52 c0 -5 -6 -16 -13 -25
-12 -15 -14 -15 -25 2 -9 15 -8 19 6 23 28 7 32 7 32 0z"/>
<path d="M1307 1756 c-4 -9 -11 -16 -17 -16 -6 0 -8 5 -5 10 20 32 -27 -7
-107 -87 -50 -51 -94 -90 -97 -88 -3 3 -11 -5 -18 -17 -8 -15 -13 -18 -13 -8
-1 11 -3 10 -9 -3 -4 -10 -10 -17 -14 -15 -4 2 -14 -7 -22 -20 -9 -12 -20 -20
-25 -17 -5 3 -10 -5 -12 -17 -2 -13 -9 -22 -15 -21 -8 2 -10 -4 -6 -14 4 -11
3 -14 -5 -9 -12 7 -17 -6 -6 -17 9 -9 44 16 44 31 0 7 23 36 51 63 57 56 64
54 75 -18 5 -36 10 -43 29 -43 13 0 32 11 43 25 11 14 29 25 39 25 14 0 24 12
33 43 8 23 28 79 46 124 17 44 28 86 24 93 -5 8 -9 7 -13 -4z m-41 -76 c0 -11
-3 -20 -7 -20 -4 0 -15 -29 -25 -65 -10 -36 -24 -65 -30 -65 -6 0 -23 -10 -38
-21 -15 -12 -29 -19 -31 -17 -2 2 -5 21 -7 41 -2 35 3 43 54 93 32 30 54 54
50 54 -8 0 20 20 28 20 3 0 6 -9 6 -20z"/>
<path d="M2058 1753 c-19 -5 -25 -23 -8 -23 6 0 10 -4 10 -10 0 -5 -8 -7 -17
-3 -15 5 -14 3 2 -10 28 -22 37 -21 34 6 -2 12 0 28 4 35 8 12 5 13 -25 5z"/>
<path d="M1011 1733 c-10 -11 -16 -12 -21 -3 -5 8 -9 7 -14 -5 -3 -9 -12 -15
-19 -12 -6 2 -20 -2 -29 -11 -14 -11 -18 -12 -18 -2 0 9 -7 7 -22 -6 -21 -19
-21 -19 -15 1 7 20 7 20 -8 1 -8 -11 -13 -22 -10 -24 2 -3 39 1 81 9 65 11 77
17 85 38 12 29 8 34 -10 14z"/>
<path d="M2120 1709 c0 -5 -4 -8 -9 -4 -5 3 -12 1 -16 -5 -4 -6 8 -10 29 -10
43 0 44 -6 11 -90 -14 -35 -25 -65 -25 -67 0 -2 28 -3 63 -3 l62 0 33 60 c18
33 37 62 43 65 16 11 10 25 -8 18 -16 -6 -17 -5 -3 13 14 17 14 18 -1 6 -18
-13 -95 -7 -105 9 -2 4 -11 6 -18 3 -8 -3 -17 -1 -21 5 -8 14 -35 14 -35 0z
m115 -54 c25 -2 25 -11 0 -52 -20 -32 -62 -49 -79 -32 -6 6 -5 9 3 9 7 0 9 5
6 10 -4 6 -1 17 5 25 7 8 10 21 7 29 -7 19 3 28 22 20 9 -4 25 -7 36 -9z"/>
<path d="M2536 1691 c-15 -17 -15 -19 -1 -25 14 -5 55 25 55 41 0 4 -5 2 -12
-5 -15 -15 -32 -16 -23 -2 10 16 -1 11 -19 -9z"/>
<path d="M820 1675 c-15 -18 -34 -20 -24 -2 4 6 -2 3 -14 -7 -17 -14 -22 -16
-22 -5 0 12 -2 12 -9 0 -6 -10 -22 -12 -56 -8 -47 6 -47 6 -31 -16 9 -12 35
-52 58 -89 l43 -68 68 0 c61 0 67 2 59 18 -11 19 -53 160 -55 180 -1 15 -2 15
-17 -3z m6 -69 c5 -17 7 -35 5 -40 -1 -5 3 -13 10 -17 21 -13 1 -39 -30 -39
-25 0 -32 6 -42 34 -7 19 -16 33 -20 30 -5 -2 -13 5 -20 17 -9 17 -8 23 2 30
8 5 19 7 25 5 6 -2 16 -1 23 3 24 15 40 7 47 -23z"/>
<path d="M1632 1664 c-7 -8 -17 -12 -22 -9 -4 3 -6 -4 -3 -15 5 -20 33 -29 33
-10 0 6 5 10 11 10 6 0 8 -8 4 -19 -4 -13 0 -20 14 -24 14 -3 19 -13 19 -41 0
-21 -3 -35 -6 -32 -3 3 -10 2 -16 -3 -6 -5 -28 -11 -48 -15 -45 -8 -54 5 -57
83 -1 30 -5 59 -8 64 -12 19 -22 -20 -17 -65 5 -38 3 -49 -10 -54 -9 -3 -16
-10 -16 -16 0 -5 5 -6 10 -3 6 3 10 2 10 -4 0 -6 -15 -15 -32 -20 -30 -8 -31
-9 -8 -12 14 -1 32 -3 40 -4 8 0 33 5 55 11 22 7 61 15 88 19 26 3 47 8 47 10
0 30 -35 143 -47 153 -21 15 -25 15 -41 -4z"/>
<path d="M2516 1645 c3 -7 1 -16 -5 -20 -6 -3 -11 0 -11 7 -1 7 -10 -4 -20
-24 -25 -47 -34 -52 -56 -31 -16 16 -16 16 -10 -5 6 -18 3 -22 -14 -22 -14 0
-20 -5 -18 -16 2 -9 -7 -23 -20 -31 -21 -15 -22 -14 -16 2 7 16 5 16 -21 -1
-27 -18 -29 -18 -22 -1 5 15 4 16 -13 7 -24 -13 -33 -13 -25 0 7 12 -8 14 -19
3 -4 -5 -17 -9 -29 -10 -12 -1 -37 -4 -55 -6 -26 -3 -32 -1 -27 11 5 13 3 13
-11 1 -14 -11 -18 -11 -22 -1 -3 10 -7 10 -18 1 -7 -6 -21 -9 -29 -5 -18 7
-20 -5 -3 -22 9 -9 7 -12 -13 -13 -13 -1 -29 -1 -36 0 -6 1 -14 -3 -18 -9 -3
-5 -11 -10 -16 -10 -6 0 -7 5 -4 10 10 16 -7 12 -27 -7 -11 -10 -18 -12 -18
-4 0 9 -5 9 -20 1 -11 -6 -20 -7 -20 -3 0 4 -11 8 -25 8 -22 0 -25 -4 -20 -22
4 -18 2 -21 -12 -17 -12 4 -10 1 5 -11 13 -9 26 -14 29 -11 4 3 1 6 -6 6 -9 0
-9 3 1 13 7 8 40 17 73 21 85 11 86 11 123 25 17 7 32 17 32 22 0 5 5 9 10 9
6 0 10 -15 10 -33 0 -21 8 -41 20 -52 20 -18 21 -18 39 1 11 10 27 35 38 54
19 37 48 45 75 23 18 -15 161 4 151 20 -3 6 -1 7 5 3 16 -10 5 -28 -57 -98
l-51 -57 57 -6 c32 -3 72 -8 89 -11 27 -4 41 3 92 46 96 81 159 118 207 126
72 10 90 -18 61 -98 -18 -51 4 -40 27 13 17 40 17 42 -1 77 -24 47 -61 57
-122 35 -25 -9 -50 -23 -57 -30 -6 -8 -17 -13 -25 -11 -8 2 -34 -16 -58 -39
-81 -75 -95 -83 -134 -79 -20 3 -36 1 -36 -4 0 -5 -6 -7 -14 -4 -15 6 -10 44
6 44 5 0 7 4 3 9 -3 5 4 12 15 16 11 4 18 11 15 16 -7 11 10 45 22 43 4 -1 7
2 6 7 -2 5 2 9 8 9 17 0 60 50 54 61 -4 5 -1 9 6 9 8 0 8 4 -1 15 -11 13 -10
23 2 52 2 3 -5 7 -14 9 -10 1 -15 -3 -12 -11z m4 -60 c0 -8 -10 -25 -22 -38
-26 -28 -68 -44 -68 -27 0 7 -6 5 -16 -4 -22 -23 -37 -20 -22 4 7 11 21 21 30
22 10 0 24 1 31 2 20 2 47 29 47 49 0 10 5 15 10 12 6 -3 10 -12 10 -20z"/>
<path d="M565 1630 c-25 -10 -52 -40 -36 -40 6 0 20 8 31 18 11 9 30 20 43 24
20 5 20 6 2 6 -11 1 -29 -3 -40 -8z"/>
<path d="M555 1501 c34 -15 91 -24 80 -13 -5 5 -30 13 -55 16 -29 4 -38 3 -25
-3z"/>
<path d="M1716 1485 c-3 -8 -10 -15 -16 -15 -6 0 -8 6 -4 13 4 6 -2 3 -14 -7
-21 -18 -22 -18 -22 -1 0 17 -1 17 -20 0 -13 -12 -20 -14 -20 -6 0 8 -10 3
-24 -10 -26 -25 -27 -41 -2 -20 17 14 116 9 174 -8 40 -12 41 -2 2 24 -34 23
-39 35 -11 28 10 -3 22 0 25 6 5 7 -5 11 -27 11 -22 0 -37 -6 -41 -15z"/>
<path d="M1264 1482 c-6 -4 -13 -15 -17 -25 -4 -10 -12 -15 -18 -12 -6 4 -8
13 -5 21 3 8 2 14 -3 14 -5 0 -12 -16 -15 -36 -5 -25 -11 -34 -21 -30 -12 4
-12 1 -3 -20 10 -20 9 -27 -3 -35 -11 -8 -11 -12 -1 -16 6 -2 12 -9 12 -14 0
-5 17 -31 38 -58 33 -44 68 -71 91 -71 5 0 11 44 15 97 8 101 13 123 26 103 8
-13 40 13 40 33 0 6 -7 2 -15 -9 -12 -15 -16 -16 -24 -5 -7 11 -10 10 -18 -3
-13 -23 -112 -49 -130 -34 -21 17 -7 25 62 38 43 8 65 17 65 26 0 8 -6 14 -12
14 -9 0 -8 4 2 10 9 6 10 10 3 10 -6 0 -15 -4 -18 -10 -3 -5 -13 -10 -22 -10
-13 0 -13 3 -3 15 10 12 10 15 -1 15 -8 0 -19 -4 -25 -8z m34 -130 c-1 -4 2
-22 6 -40 5 -22 4 -38 -3 -45 -8 -8 -11 -8 -11 1 0 6 -7 9 -15 6 -9 -4 -15 0
-15 10 0 9 -7 16 -15 16 -22 0 -20 48 3 52 32 7 52 7 50 0z"/>
<path d="M585 1461 c-3 -5 0 -13 7 -17 13 -8 87 -24 126 -27 12 -1 22 -3 22
-5 0 -3 -18 -26 -42 -53 -17 -18 -17 -19 11 -19 37 0 104 28 96 40 -7 12 -45
13 -45 2 0 -4 -9 -13 -20 -20 -20 -12 -21 -12 -4 13 9 14 21 25 26 25 6 0 8 9
5 19 -9 35 18 29 48 -10 16 -22 37 -39 46 -39 24 0 49 27 49 54 0 12 6 28 13
36 6 8 -1 6 -17 -4 -21 -14 -30 -15 -36 -6 -5 9 -9 9 -14 1 -4 -6 -14 -11 -23
-11 -13 0 -14 2 -2 18 13 15 12 16 -3 4 -9 -8 -26 -11 -37 -7 -10 3 -22 1 -26
-5 -10 -16 -28 -12 -21 6 6 15 4 15 -18 0 -32 -20 -42 -21 -26 -1 16 19 1 19
-24 0 -27 -20 -42 -19 -25 2 13 15 12 15 -8 5 -27 -15 -46 -15 -38 -2 3 6 2
10 -4 10 -5 0 -12 -4 -16 -9z"/>
<path d="M1046 1454 c-4 -10 3 -14 24 -14 36 0 40 16 6 22 -15 3 -27 0 -30 -8z"/>
<path d="M1439 1453 c-39 -47 -40 -50 -24 -63 13 -11 14 -10 9 4 -4 11 -2 16
7 14 8 -2 13 3 11 11 -2 7 5 22 14 32 9 11 13 19 7 19 -5 0 -16 -8 -24 -17z"/>
<path d="M2791 1429 c-17 -17 -50 -46 -72 -65 -23 -19 -35 -34 -28 -34 8 0 5
-5 -6 -13 -10 -8 -15 -19 -11 -25 3 -5 0 -13 -6 -15 -9 -4 -10 -6 -1 -6 6 -1
20 12 29 28 10 16 28 34 41 40 13 6 22 15 18 20 -3 5 -1 12 4 15 13 8 74 86
68 86 -3 0 -19 -14 -36 -31z"/>
<path d="M1512 1437 c-12 -7 -20 -16 -16 -20 4 -3 1 -13 -6 -22 -7 -9 -10 -19
-6 -23 4 -4 16 4 28 18 11 14 17 20 13 13 -3 -7 2 -24 11 -38 13 -20 14 -25 2
-25 -11 0 -14 -21 -13 -100 0 -94 -1 -99 -22 -105 -43 -11 -23 -22 24 -14 55
11 54 9 46 37 -5 22 -23 31 -23 12 0 -5 -4 -10 -10 -10 -6 0 -6 9 0 25 5 13
10 42 12 65 1 22 6 40 10 40 5 0 7 22 5 49 -3 35 0 51 9 55 7 3 16 1 20 -5 3
-6 11 -8 17 -6 7 2 20 0 30 -5 12 -6 23 -5 32 2 8 6 23 9 35 5 11 -3 20 -2 20
3 0 5 10 14 23 21 16 9 17 10 2 5 -32 -11 -95 -13 -95 -3 0 5 5 9 12 9 6 0 9
2 6 5 -3 4 -21 -3 -40 -14 -35 -19 -35 -19 -52 0 -8 10 -23 19 -31 19 -9 0
-13 5 -10 10 8 13 -5 12 -33 -3z"/>
<path d="M984 1416 c-7 -18 13 -39 27 -30 4 2 22 6 41 8 18 3 46 8 62 12 19 5
31 2 37 -7 7 -11 9 -9 9 8 0 22 -12 24 -54 7 -15 -6 -17 -4 -11 7 7 10 1 9
-18 -4 -17 -11 -27 -13 -27 -6 0 8 -5 7 -16 -2 -14 -11 -18 -10 -30 5 -13 18
-14 18 -20 2z"/>
<path d="M1768 1396 c-14 -10 -18 -28 -18 -75 0 -33 4 -61 9 -61 5 0 23 23 40
50 30 49 31 50 12 69 -11 11 -17 22 -13 25 11 12 -13 5 -30 -8z"/>
<path d="M956 1383 c-3 -10 -9 -24 -12 -30 -3 -8 1 -13 9 -13 9 0 19 9 22 21
9 27 -10 48 -19 22z"/>
<path d="M229 1370 c13 -11 30 -20 38 -20 11 0 7 7 -10 20 -33 26 -60 26 -28
0z"/>
<path d="M1069 1380 c-1 -3 -1 -8 0 -12 0 -5 -8 -8 -19 -8 -11 0 -20 -4 -20
-10 0 -5 15 -10 33 -10 22 1 37 8 50 25 l17 24 -30 -2 c-16 -1 -31 -4 -31 -7z"/>
<path d="M1141 1350 c-1 -21 -3 -22 -12 -10 -9 12 -10 12 -5 -3 3 -10 6 -21 6
-23 0 -2 7 -4 15 -4 8 0 15 -5 15 -11 0 -7 -10 -9 -25 -7 -22 5 -24 3 -18 -20
5 -21 3 -24 -11 -19 -18 7 -21 -4 -6 -19 6 -6 8 -19 4 -28 -5 -14 -9 -15 -16
-4 -5 8 -6 3 -2 -14 3 -16 2 -28 -4 -28 -5 0 -10 -6 -9 -12 0 -7 -1 -22 -2
-33 -1 -17 -3 -18 -11 -5 -8 12 -10 12 -11 -5 0 -11 -3 -15 -6 -8 -3 10 -7 10
-17 0 -16 -14 -10 -38 7 -32 17 6 198 27 224 26 12 0 25 4 29 10 4 8 -1 9 -16
4 -17 -5 -21 -4 -15 6 6 8 4 11 -6 7 -51 -21 -52 -21 -45 -9 5 8 -5 6 -25 -5
-31 -15 -33 -15 -20 -1 15 19 1 23 -16 6 -16 -16 -49 -2 -49 19 0 16 7 18 41
16 183 -14 175 -15 175 13 0 19 -3 23 -12 15 -17 -13 -108 -26 -108 -15 0 5 7
19 16 32 13 18 18 20 25 10 6 -10 9 -10 9 -2 0 7 -7 16 -16 21 -9 5 -15 11
-14 13 5 13 -14 37 -26 32 -19 -7 -18 -23 1 -23 18 0 20 -30 3 -53 -7 -9 -25
-19 -41 -23 -23 -5 -26 -4 -20 12 4 12 3 15 -5 10 -16 -10 -15 0 4 29 9 14 13
25 10 25 -4 0 1 12 10 26 13 19 19 22 25 12 7 -10 9 -9 9 4 0 9 -4 19 -10 23
-5 3 -7 12 -3 20 3 8 0 15 -5 15 -6 0 -13 8 -15 18 -3 11 -5 9 -6 -8z"/>
<path d="M837 1343 c-12 -12 -17 -14 -17 -4 0 11 -3 11 -15 1 -8 -6 -18 -9
-23 -6 -6 3 -15 -1 -22 -9 -14 -17 -35 -20 -24 -4 3 6 -5 4 -19 -5 -18 -12
-23 -23 -19 -38 5 -20 5 -20 20 -2 13 16 14 17 9 2 -4 -11 -1 -18 6 -18 8 0 7
-4 -3 -11 -13 -9 -13 -10 0 -6 10 2 14 13 12 30 -3 23 2 27 50 42 29 8 70 18
91 22 20 3 40 10 43 15 6 9 -38 4 -55 -6 -5 -4 -11 -1 -13 4 -2 6 -11 3 -21
-7z"/>
<path d="M2165 1345 c-16 -7 -34 -11 -39 -8 -4 3 0 -7 10 -23 15 -22 20 -24
22 -11 4 20 56 25 123 12 10 -2 24 3 31 12 11 14 10 15 -10 9 -14 -5 -22 -3
-22 4 0 7 -6 8 -19 0 -25 -13 -34 -13 -26 0 8 13 -1 13 -27 -1 -18 -10 -20 -9
-15 5 4 9 5 16 4 15 -1 0 -15 -7 -32 -14z"/>
<path d="M1854 1336 c10 -8 23 -13 27 -10 5 3 22 -2 38 -11 38 -19 75 -19 91
0 7 8 20 15 29 16 10 0 11 3 4 6 -7 2 -23 -3 -35 -11 -26 -18 -42 -21 -33 -6
4 7 -3 8 -21 4 -18 -5 -25 -3 -21 3 4 7 -2 11 -16 10 -12 0 -35 3 -52 7 -28 7
-29 6 -11 -8z"/>
<path d="M238 1331 c-13 -4 -15 -10 -8 -21 15 -23 12 -29 -10 -23 -11 3 -20 9
-20 13 0 4 -11 12 -25 18 -40 19 -29 -2 15 -27 23 -13 45 -19 52 -14 7 4 21 6
30 5 12 -2 15 2 11 17 -7 27 -24 40 -45 32z"/>
<path d="M911 1323 c-8 -14 -10 -15 -11 -3 0 8 -10 -1 -23 -20 -44 -66 -39
-76 12 -25 28 27 51 53 51 57 0 14 -19 8 -29 -9z"/>
<path d="M970 1310 c-6 -11 -15 -18 -21 -15 -5 4 -9 2 -9 -3 0 -13 -36 -52
-48 -52 -5 0 -12 -9 -15 -21 -3 -12 -10 -18 -16 -15 -6 4 -13 -5 -17 -20 -5
-19 -9 -22 -15 -12 -6 9 -9 7 -9 -9 0 -23 -19 -43 -21 -21 -1 7 -4 2 -8 -12
-4 -14 -13 -24 -19 -23 -7 2 -12 -4 -12 -12 0 -8 -5 -15 -11 -15 -6 0 -9 -7
-5 -15 3 -9 0 -15 -10 -15 -8 0 -12 4 -9 10 7 11 -72 2 -95 -11 -12 -7 -10 -8
7 -9 12 0 28 -9 37 -21 23 -33 72 -18 91 28 12 29 17 33 30 23 21 -17 194 24
213 51 7 10 19 19 27 19 8 0 18 20 24 51 6 28 15 58 20 67 4 9 11 30 15 47 7
28 7 29 -12 12 -24 -22 -39 -22 -21 0 11 13 11 15 1 9 -24 -14 -31 -50 -13
-63 14 -12 14 -12 -4 -7 -16 6 -18 5 -7 -7 14 -16 16 -59 2 -59 -5 0 -9 -4 -7
-8 4 -16 -60 -67 -88 -70 -15 -1 -34 -7 -41 -13 -10 -8 -14 -4 -17 18 -4 27
-5 27 -12 6 -4 -13 -13 -23 -20 -23 -7 0 -16 -6 -18 -12 -9 -21 -26 12 -19 33
9 24 50 69 62 69 5 0 10 9 10 21 0 15 5 19 15 15 8 -3 15 -2 15 3 0 4 13 22
29 40 23 26 35 32 53 28 19 -5 24 -2 24 13 0 13 -4 16 -10 10 -13 -13 -29 -13
-21 0 3 6 2 10 -4 10 -6 0 -15 -9 -21 -20z"/>
<path d="M2426 1319 c-10 -6 -38 -9 -62 -6 -49 5 -64 -8 -64 -57 0 -46 39 -33
118 40 38 35 41 41 8 23z"/>
<path d="M674 1307 c-3 -8 -12 -18 -21 -21 -11 -5 -14 -2 -9 11 5 13 0 11 -18
-6 -16 -15 -26 -19 -26 -11 0 10 -5 8 -19 -4 -14 -13 -20 -14 -23 -5 -3 9 -6
10 -11 2 -9 -14 87 -65 107 -57 8 3 19 27 25 52 9 46 7 69 -5 39z"/>
<path d="M2078 1306 c-22 -16 -24 -30 -4 -23 8 3 16 1 19 -6 2 -8 5 -8 11 1 4
7 3 12 -3 12 -6 0 -8 7 -5 15 7 18 4 18 -18 1z"/>
<path d="M346 1278 c-3 -13 -4 -24 -3 -24 1 -1 -7 -11 -17 -23 -11 -12 -14
-21 -7 -21 6 0 14 7 17 15 4 8 16 15 29 15 26 0 52 25 35 35 -5 3 -10 0 -10
-8 0 -7 -6 -14 -14 -14 -9 0 -13 8 -10 24 6 30 -12 30 -20 1z"/>
<path d="M2187 1252 c3 -20 0 -22 -24 -16 -22 4 -25 3 -13 -5 22 -16 60 -13
60 4 0 8 -4 15 -9 15 -5 0 -11 6 -14 13 -2 6 -2 2 0 -11z"/>
<path d="M1722 1256 c4 -26 -29 -46 -43 -26 -9 13 -10 13 -6 0 2 -8 -3 -21
-10 -29 -21 -20 -8 -25 19 -7 34 24 48 20 48 -15 0 -17 5 -29 11 -27 6 2 10 7
10 11 -1 4 -1 22 -1 40 0 18 -7 42 -15 53 -15 18 -15 18 -13 0z"/>
<path d="M2029 1253 c-5 -94 -4 -105 13 -114 19 -10 38 -4 38 12 0 5 -9 9 -21
9 -19 0 -21 5 -16 45 2 25 0 48 -4 51 -5 3 -9 2 -10 -3z"/>
<path d="M1884 1234 c3 -8 1 -24 -4 -35 -9 -16 -7 -19 14 -19 23 0 24 2 13 35
-6 19 -15 35 -20 35 -5 0 -6 -7 -3 -16z"/>
<path d="M2560 1213 c-30 -19 -66 -36 -80 -36 -14 0 -19 -2 -12 -4 27 -10 12
-33 -23 -33 -19 0 -35 -5 -35 -10 0 -6 -11 -15 -24 -20 -31 -11 -55 -48 -66
-97 -6 -26 -5 -40 3 -45 21 -13 29 -9 22 12 -4 12 -2 20 5 20 6 0 9 -4 6 -9
-7 -11 31 -61 47 -61 20 -1 58 -38 62 -60 2 -12 16 -30 30 -41 26 -21 33 -53
14 -65 -6 -3 -14 -2 -18 4 -4 7 -12 8 -21 2 -13 -8 -12 -10 3 -10 9 0 17 -4
17 -10 0 -13 -36 -31 -45 -22 -3 4 -5 1 -3 -7 1 -7 -3 -16 -11 -19 -8 -3 -11
0 -7 7 4 6 3 11 -3 11 -5 0 -11 -5 -13 -11 -7 -20 -62 0 -103 36 -42 38 -70
48 -40 15 16 -17 16 -20 2 -20 -8 0 -31 18 -50 40 -40 48 -53 52 -32 10 19
-36 89 -90 119 -90 12 -1 32 -7 45 -14 33 -18 107 3 139 39 12 14 22 23 22 19
0 -3 7 -1 15 6 9 7 13 15 11 17 -3 3 -1 16 4 29 6 15 6 24 0 24 -6 0 -10 6
-10 13 0 7 -9 18 -20 25 -11 7 -20 18 -20 25 0 6 -17 26 -37 42 -64 51 -103
91 -103 105 0 13 19 31 52 50 14 8 16 6 13 -12 -4 -16 -2 -19 7 -10 7 7 27 12
46 12 19 0 47 8 63 17 31 19 40 40 12 27 -10 -4 -47 -9 -82 -11 -55 -2 -62 -1
-51 12 15 18 40 20 40 4 0 -8 5 -8 15 1 8 7 21 10 30 7 8 -4 17 -2 21 4 3 6
11 8 18 6 6 -3 16 1 23 8 9 10 7 14 -10 20 -21 6 -22 6 -2 14 11 5 23 7 26 5
4 -2 9 3 13 11 3 8 13 15 21 15 10 0 13 5 9 12 -5 8 -2 9 10 5 10 -4 24 -1 32
8 9 8 12 15 7 15 -5 0 -14 -5 -21 -12 -9 -9 -12 -9 -12 0 0 18 -10 14 -70 -25z"/>
<path d="M481 1189 c-7 -16 -11 -33 -7 -36 3 -3 10 6 15 20 7 18 15 25 26 21
8 -3 15 -2 15 4 0 8 -22 22 -33 22 -1 0 -8 -14 -16 -31z"/>
<path d="M770 1201 c-5 -11 -10 -27 -10 -35 0 -9 -7 -16 -15 -16 -8 0 -15 -4
-15 -9 0 -5 -11 -11 -25 -13 -21 -4 -25 -1 -25 19 0 21 -2 22 -21 13 -12 -7
-18 -18 -15 -26 3 -8 1 -14 -3 -14 -5 0 -11 5 -13 12 -2 6 -15 0 -30 -15 -16
-16 -43 -29 -67 -33 -23 -4 -41 -9 -41 -13 0 -10 60 -3 120 13 30 9 71 16 90
17 28 1 43 9 74 45 34 39 37 45 22 59 -14 14 -16 14 -26 -4z"/>
<path d="M2144 1170 c1 -35 4 -40 21 -38 34 5 19 77 -16 78 -4 0 -6 -18 -5
-40z"/>
<path d="M1340 1182 c0 -10 50 -55 56 -50 4 4 -44 58 -51 58 -3 0 -5 -4 -5 -8z"/>
<path d="M503 1163 c-7 -2 -13 -11 -13 -19 0 -8 -10 -14 -22 -14 -18 0 -20 -2
-9 -9 18 -12 47 2 61 29 11 20 6 23 -17 13z"/>
<path d="M1876 1152 c-11 -11 -16 -12 -16 -4 0 10 -5 10 -20 2 -11 -6 -20 -15
-20 -21 0 -6 6 -6 18 -1 25 13 42 4 42 -24 0 -20 -5 -24 -32 -25 -27 -1 -23
-4 20 -12 56 -11 72 -6 53 17 -8 10 -9 21 -1 40 5 15 10 31 10 35 0 14 -37 9
-54 -7z"/>
<path d="M1800 1145 c-15 -18 -34 -20 -24 -2 4 6 -3 3 -15 -8 -18 -15 -24 -16
-30 -6 -6 10 -10 10 -16 2 -3 -7 -15 -9 -25 -6 -10 3 -21 1 -25 -5 -3 -5 -11
-10 -16 -10 -6 0 -7 5 -3 11 4 8 1 8 -12 1 -11 -5 -24 -7 -31 -5 -15 5 -26
-14 -13 -22 5 -3 10 -3 10 2 0 4 30 8 66 8 53 0 68 -4 80 -19 14 -20 18 -16
15 17 -2 12 5 17 22 17 14 0 28 7 31 16 9 23 1 28 -14 9z"/>
<path d="M2221 1138 c9 -17 9 -20 -4 -15 -11 4 -13 0 -9 -15 4 -16 2 -19 -9
-13 -12 7 -12 6 -1 -6 11 -12 16 -11 32 9 10 12 23 22 28 22 5 0 16 8 23 17
12 15 12 16 -4 10 -9 -3 -29 -2 -42 3 -24 9 -25 8 -14 -12z"/>
<path d="M1944 1133 c10 -10 76 -11 70 -1 -3 4 -21 8 -41 8 -20 0 -33 -3 -29
-7z"/>
<path d="M2036 1121 c-4 -6 -4 -15 -1 -21 9 -15 42 -12 48 4 4 10 1 13 -10 9
-8 -3 -19 0 -23 7 -5 8 -9 9 -14 1z"/>
<path d="M1287 1076 c-23 -24 -52 -56 -64 -70 -21 -26 -66 -35 -78 -16 -7 11
-35 2 -35 -11 0 -5 29 -9 65 -9 36 0 65 4 65 8 0 7 49 87 67 111 2 3 9 -1 15
-7 9 -9 7 -13 -5 -18 -9 -3 -17 -11 -17 -16 0 -7 4 -7 13 -1 6 6 19 10 27 11
60 2 142 17 151 28 8 10 8 14 1 14 -6 0 -13 -4 -16 -9 -3 -5 -22 -9 -41 -8
-29 1 -32 3 -23 16 10 13 10 14 -2 4 -8 -7 -23 -13 -34 -13 -18 0 -19 2 -6 11
13 9 12 10 -2 5 -10 -3 -26 -9 -35 -13 -16 -6 -16 -5 -4 10 28 34 -2 16 -42
-27z"/>
<path d="M2110 1109 c-22 -9 -23 -11 -8 -20 13 -7 16 -22 14 -66 -1 -34 3 -61
11 -68 6 -7 10 -15 7 -18 -3 -3 5 -3 18 1 18 5 19 7 6 10 -18 4 -26 42 -8 42
5 0 3 18 -5 41 -8 23 -12 45 -9 50 8 14 24 10 24 -6 0 -8 4 -15 9 -15 5 0 8
11 7 25 0 16 -6 23 -13 20 -49 -20 -49 -20 -34 -2 15 19 15 19 -19 6z"/>
<path d="M1972 1098 c-14 -14 -16 -52 -3 -43 5 3 12 2 15 -3 3 -5 -9 -17 -26
-27 -28 -16 -31 -16 -25 -1 5 14 3 15 -13 6 -25 -13 -51 -14 -30 0 8 5 10 10
4 10 -5 0 -19 -7 -30 -15 -13 -10 -14 -14 -5 -15 11 0 11 -3 1 -15 -22 -27 -4
-45 45 -45 l47 0 -7 31 c-7 30 -6 31 18 25 29 -7 107 -56 107 -67 0 -5 -7 -12
-16 -17 -14 -8 -11 -11 15 -20 18 -6 31 -7 31 -2 0 5 13 7 29 4 17 -4 32 -1
36 6 6 9 -5 11 -43 9 -36 -3 -48 -1 -45 9 3 6 13 12 22 13 11 0 9 3 -6 9 -25
10 -30 25 -10 34 6 3 -3 3 -21 0 -34 -6 -67 10 -56 28 4 6 -2 7 -17 3 -22 -7
-23 -6 -9 10 14 17 23 85 10 85 -3 0 -11 -5 -18 -12z"/>
<path d="M1517 1085 c-18 -13 -18 -14 2 -25 13 -6 21 -21 21 -35 0 -32 -9 -31
-37 2 -13 14 -25 24 -28 22 -2 -3 7 -17 21 -33 28 -29 25 -47 -5 -29 -12 7
-23 8 -35 1 -13 -7 -26 -7 -44 1 -19 9 -27 9 -33 0 -4 -8 -17 -9 -35 -4 -47
13 -64 12 -75 -2 -6 -7 -8 -13 -3 -13 278 -5 525 -12 546 -15 l27 -4 -21 34
c-24 41 -31 44 -22 10 5 -21 3 -25 -16 -25 -13 0 -29 8 -36 18 -12 15 -13 15
-14 1 0 -13 -12 -16 -71 -15 l-72 1 -12 47 c-6 26 -8 52 -3 58 5 7 4 7 -4 0
-7 -5 -21 -10 -32 -10 -17 0 -18 2 -6 10 8 5 12 11 10 14 -3 2 -13 -2 -23 -9z"/>
<path d="M2019 1076 c12 -14 12 -19 2 -26 -10 -6 -8 -11 10 -20 23 -13 23 -13
4 -20 -19 -8 -19 -8 -1 -15 24 -11 39 14 20 33 -9 8 -13 21 -10 28 3 8 -5 19
-17 25 -20 11 -21 11 -8 -5z"/>
<path d="M925 1060 c-20 -22 -40 -27 -29 -7 4 6 -2 4 -13 -5 -23 -21 -37 -24
-27 -5 4 6 -2 3 -14 -7 -12 -11 -22 -14 -22 -8 0 7 -7 12 -15 12 -8 0 -15 -7
-15 -15 0 -8 -5 -15 -12 -15 -18 0 0 -14 24 -17 30 -5 35 -12 18 -23 -20 -13
-33 -12 -25 0 10 16 -7 12 -27 -7 -14 -12 -18 -13 -18 -3 0 9 -5 7 -16 -6 -11
-13 -17 -15 -20 -7 -4 10 -10 9 -22 -3 -11 -11 -17 -13 -20 -5 -2 6 -12 2 -23
-11 -12 -15 -18 -18 -19 -9 0 11 -5 10 -20 -4 -13 -12 -20 -14 -20 -5 0 10 -3
10 -15 0 -22 -19 -18 -25 17 -27 17 -1 36 -7 41 -12 17 -17 -4 -65 -46 -104
-41 -38 -41 -39 -9 -23 17 9 32 21 32 27 0 6 5 7 10 4 6 -3 10 -1 10 6 0 26
202 199 233 199 22 0 64 40 76 73 13 32 10 33 -14 7z"/>
<path d="M1675 1066 c-17 -12 -16 -13 10 -20 20 -5 33 -2 44 9 15 15 14 15
-11 6 -22 -8 -26 -8 -21 4 6 19 2 19 -22 1z"/>
<path d="M1140 1050 l-25 -19 30 3 c17 2 35 4 41 5 7 0 14 8 18 16 4 12 0 12
-21 -2 -26 -17 -27 -17 -20 0 8 21 8 21 -23 -3z"/>
<path d="M1757 1056 c-16 -13 -16 -14 9 -20 19 -5 32 -2 43 10 15 15 14 16 -6
5 -29 -15 -33 -14 -27 4 7 18 4 18 -19 1z"/>
<path d="M1001 1038 c9 -17 5 -22 -13 -19 -5 0 -8 -6 -8 -14 0 -8 -5 -15 -11
-15 -6 0 -8 9 -4 20 4 11 2 20 -4 20 -6 0 -11 -7 -11 -15 0 -8 -4 -15 -10 -15
-5 0 -10 -7 -10 -15 0 -8 -4 -15 -9 -15 -5 0 -13 -9 -16 -20 -4 -11 -10 -18
-14 -15 -10 6 -36 -43 -28 -52 4 -3 15 1 25 10 24 22 32 21 32 0 0 -13 4 -11
13 7 10 18 19 24 37 21 14 -1 28 -8 31 -13 4 -6 16 -4 32 6 31 21 35 15 43
-61 4 -32 13 -74 20 -93 14 -35 14 -35 6 15 -10 72 -9 154 3 157 6 1 14 -22
18 -51 10 -59 23 -60 18 -1 -1 21 3 48 9 60 11 20 10 21 -11 10 -17 -9 -23 -9
-29 0 -5 9 -9 9 -14 1 -10 -16 -39 -14 -30 2 6 10 4 10 -7 0 -16 -15 -43 -17
-34 -3 3 6 2 10 -4 10 -5 0 -13 -4 -16 -10 -9 -15 -38 -13 -29 3 4 6 -2 4 -13
-6 -13 -11 -23 -14 -27 -8 -13 21 38 40 100 38 l60 -3 10 42 10 42 -25 -17
c-24 -15 -25 -15 -17 4 7 19 6 19 -11 2 -11 -11 -14 -20 -8 -25 18 -13 16 -34
-2 -30 -13 3 -18 12 -17 33 1 25 -3 30 -21 30 -19 0 -21 -3 -14 -17z"/>
<path d="M2247 963 c5 -15 3 -16 -8 -5 -7 6 -18 12 -23 12 -24 0 33 -29 70
-35 21 -4 47 -12 58 -17 12 -7 22 -6 29 1 8 8 3 11 -17 11 -18 0 -25 4 -20 11
5 9 -1 10 -20 5 -18 -4 -25 -3 -21 4 3 5 -1 10 -9 10 -9 0 -16 5 -16 10 0 6
-7 10 -15 10 -9 0 -12 -6 -8 -17z"/>
<path d="M827 929 c-16 -16 -33 -26 -39 -23 -7 5 -9 0 -6 -14 4 -12 3 -20 -2
-17 -4 3 -32 -18 -61 -45 -37 -35 -55 -46 -61 -37 -5 8 -8 7 -8 -6 0 -9 -5
-26 -12 -36 -9 -15 -7 -24 11 -50 12 -17 19 -31 15 -31 -4 0 5 -9 20 -21 14
-11 26 -25 26 -30 0 -12 41 -72 57 -81 11 -8 8 -75 -4 -108 -8 -20 -13 -41
-17 -65 -2 -11 -4 -20 -5 -20 -3 0 -8 -24 -16 -70 -10 -61 -18 -90 -27 -102
-5 -7 -7 -16 -4 -22 3 -5 1 -11 -5 -13 -6 -2 -12 -16 -12 -31 -1 -15 -5 -27
-9 -27 -4 0 -5 -6 -2 -14 3 -8 1 -17 -5 -21 -16 -9 -13 -45 3 -45 23 0 111
297 141 477 6 35 3 47 -18 75 -13 18 -49 70 -80 115 -55 80 -56 83 -36 94 15
8 19 8 15 0 -10 -15 27 -14 42 1 7 7 12 20 12 30 0 10 5 18 11 18 8 0 8 5 -1
15 -13 16 -5 20 29 16 7 -2 10 2 7 7 -3 6 1 13 10 16 23 9 27 8 20 -9 -3 -8
-1 -15 4 -15 6 0 10 11 10 25 0 14 4 25 8 25 5 0 9 6 9 13 0 6 3 22 7 35 9 28
7 27 -27 -9z"/>
<path d="M1170 940 c-8 -5 -10 -10 -3 -10 7 0 9 -9 6 -22 -6 -23 -6 -23 23 2
49 41 50 43 27 31 -27 -14 -36 -14 -28 -1 8 13 -5 13 -25 0z"/>
<path d="M1250 928 c-20 -21 -13 -38 15 -38 6 0 5 4 -2 8 -7 5 1 11 23 18 19
6 34 8 34 5 0 -3 32 -7 72 -8 40 -2 76 -7 82 -13 13 -13 39 -13 31 0 -8 13 1
13 26 0 11 -6 19 -21 19 -35 0 -14 3 -25 8 -25 4 0 7 -19 7 -43 0 -23 4 -51 9
-62 8 -19 9 -19 16 5 3 14 2 28 -4 33 -7 5 -6 10 4 16 12 9 12 11 -3 17 -9 3
-17 10 -17 16 0 5 4 7 9 4 4 -3 6 5 4 17 -5 27 12 77 27 77 6 0 8 -5 5 -10 -9
-14 46 10 65 28 12 12 12 13 1 7 -8 -5 -26 -9 -40 -10 -14 -2 -35 -6 -45 -10
-14 -6 -17 -5 -11 4 6 10 3 11 -13 2 -26 -14 -35 -14 -27 -1 4 6 -3 6 -21 0
-23 -9 -25 -8 -20 7 6 14 5 16 -5 6 -7 -7 -19 -13 -27 -13 -8 0 -10 5 -5 13 4
6 -5 4 -20 -5 -33 -22 -38 -22 -30 -2 5 14 3 15 -15 5 -26 -14 -35 -14 -26 0
5 8 1 8 -14 0 -27 -14 -35 -14 -26 1 5 7 2 9 -7 6 -50 -21 -52 -21 -45 -10 12
21 -12 13 -34 -10z"/>
<path d="M2186 941 c-3 -4 6 -19 20 -31 23 -23 25 -23 42 -6 16 17 16 18 -5
11 -14 -4 -23 -2 -23 4 0 6 -6 10 -12 9 -7 -2 -12 3 -10 10 2 14 -4 16 -12 3z"/>
<path d="M1694 925 c-18 -14 -16 -15 29 -13 41 1 52 -2 73 -25 14 -15 28 -27
31 -27 3 0 -2 9 -11 19 -22 24 -2 40 22 18 16 -14 17 -13 17 13 0 18 -3 26 -9
20 -13 -13 -39 -13 -31 0 4 7 -3 7 -20 0 -33 -13 -38 -13 -29 1 5 8 1 8 -14 0
-26 -14 -35 -14 -27 -1 9 15 -9 12 -31 -5z"/>
<path d="M1880 925 c-14 -8 -20 -14 -14 -15 7 0 15 -12 19 -27 5 -20 9 -24 14
-13 9 23 31 23 31 -1 0 -11 -4 -17 -10 -14 -5 3 -10 1 -10 -4 0 -6 5 -11 11
-11 5 0 7 -5 3 -12 -4 -7 -9 -26 -11 -42 -2 -17 -8 -33 -14 -37 -6 -3 -10 -9
-10 -13 3 -23 0 -36 -9 -31 -6 3 -10 -4 -10 -17 1 -23 1 -22 24 6 27 32 44 85
53 157 4 34 12 53 24 60 11 5 19 14 19 20 0 6 -10 3 -22 -5 -30 -21 -44 -20
-27 1 13 16 13 16 -11 0 -30 -21 -47 -22 -30 -2 15 18 12 18 -20 0z"/>
<path d="M2277 878 c-3 -20 1 -42 9 -55 14 -22 13 -23 -10 -23 -15 0 -30 8
-36 20 -6 11 -15 20 -21 20 -5 0 -2 -11 7 -25 13 -19 25 -25 53 -25 l38 0 -3
43 c-2 42 -2 43 26 39 15 -2 31 1 35 7 5 8 -1 10 -19 5 -23 -5 -25 -4 -20 12
6 16 5 17 -7 7 -16 -15 -43 -17 -34 -3 3 6 2 10 -3 10 -5 0 -12 -15 -15 -32z"/>
<path d="M2150 890 c-22 -6 -23 -8 -7 -15 9 -4 17 -16 17 -26 0 -10 4 -19 10
-19 5 0 7 7 3 16 -5 13 -1 15 18 10 23 -7 24 -7 4 9 -17 14 -18 17 -5 25 13 9
13 10 0 9 -8 -1 -26 -4 -40 -9z"/>
<path d="M1233 866 c4 -10 1 -13 -7 -10 -8 3 -17 0 -22 -7 -4 -8 -3 -10 4 -5
7 4 12 2 12 -4 0 -15 18 -3 30 21 9 15 7 19 -6 19 -10 0 -14 -5 -11 -14z"/>
<path d="M545 824 c19 -34 48 -39 53 -9 2 9 -2 22 -9 29 -9 8 -10 8 -5 -1 11
-21 -15 -26 -36 -6 l-21 18 18 -31z"/>
<path d="M1517 826 c-3 -8 -1 -17 6 -20 9 -5 9 -7 -1 -12 -6 -3 -10 -10 -6
-15 10 -17 24 2 24 32 0 30 -14 39 -23 15z"/>
<path d="M464 796 c-3 -8 -3 -20 1 -26 8 -12 35 -13 35 -1 0 5 9 11 20 13 35
5 27 23 -13 26 -26 2 -39 -1 -43 -12z"/>
<path d="M794 789 c-3 -6 -27 -24 -52 -40 l-46 -29 31 0 c23 0 38 9 57 31 14
17 26 35 26 40 0 12 -7 11 -16 -2z"/>
<path d="M985 723 c7 -21 17 -37 22 -35 9 4 6 29 -8 55 -17 32 -27 18 -14 -20z"/>
<path d="M1517 753 c-13 -12 -7 -25 9 -19 10 4 14 1 12 -6 -2 -6 4 -20 14 -30
10 -10 16 -24 12 -30 -4 -7 -3 -8 4 -4 7 4 12 1 12 -7 0 -8 7 -20 15 -27 8 -7
15 -20 15 -30 0 -10 6 -20 14 -23 8 -3 17 -19 21 -36 3 -16 12 -35 20 -41 8
-6 11 -18 8 -26 -3 -8 -1 -20 5 -27 6 -7 13 -26 16 -42 3 -15 10 -32 17 -35 8
-6 8 -9 0 -14 -8 -5 -8 -13 1 -29 7 -12 13 -31 15 -42 2 -11 7 -31 13 -45 5
-14 10 -34 12 -45 2 -11 6 -22 10 -25 4 -3 9 -17 11 -30 2 -14 6 -32 9 -40 3
-8 11 -34 17 -57 7 -26 18 -43 27 -43 17 0 16 6 -31 165 -18 61 -45 153 -59
205 -32 113 -102 261 -145 309 -17 19 -34 45 -37 58 -6 22 -24 30 -37 16z"/>
<path d="M1982 727 c-1 -16 -7 -38 -13 -49 -9 -17 -13 -18 -20 -7 -7 11 -9 9
-9 -8 0 -25 -16 -39 -23 -21 -3 7 -6 3 -6 -9 -1 -12 5 -24 12 -26 9 -4 9 -8
-2 -15 -9 -7 -11 -15 -4 -27 8 -14 12 -9 22 30 7 26 21 55 32 64 16 13 20 25
16 56 -2 28 -4 31 -5 12z"/>
<path d="M1031 718 c-1 -14 10 -50 23 -79 14 -29 23 -56 20 -61 -3 -4 0 -8 5
-8 6 0 11 -17 12 -37 1 -33 2 -35 8 -13 8 28 -12 111 -36 149 -9 13 -19 36
-23 50 l-8 26 -1 -27z"/>
<path d="M1500 684 c0 -9 -16 -32 -35 -50 -20 -18 -42 -49 -50 -68 -18 -41
-18 -46 -6 -46 5 0 12 14 16 30 4 17 10 30 15 30 5 0 12 9 15 21 4 11 9 18 12
15 10 -10 39 30 41 57 1 15 0 27 -3 27 -3 0 -5 -7 -5 -16z"/>
<path d="M809 678 c-1 -7 -1 -16 -1 -19 1 -4 -9 -4 -21 -1 -19 5 -20 3 -9 -11
19 -22 62 -3 55 24 -6 21 -22 26 -24 7z"/>
<path d="M2180 655 c0 -19 4 -35 10 -35 12 0 24 45 15 59 -13 22 -25 10 -25
-24z"/>
<path d="M2124 653 c-3 -16 -10 -40 -15 -54 -6 -14 -9 -32 -7 -40 3 -15 -2
-15 -42 -5 -24 7 -24 6 -6 -8 32 -26 65 -20 72 12 3 15 8 34 11 42 10 26 12
80 2 80 -5 0 -11 -12 -15 -27z"/>
<path d="M887 663 c-4 -3 -7 -23 -7 -43 0 -20 -5 -41 -12 -48 -9 -9 -9 -14 0
-22 6 -6 10 -7 7 -3 -3 3 2 15 12 25 21 23 21 112 0 91z"/>
<path d="M2275 594 c-6 -8 -17 -16 -25 -17 -8 -1 -25 -10 -38 -18 -19 -14 -20
-18 -7 -22 8 -4 15 -11 15 -17 0 -6 -5 -8 -12 -4 -7 4 -8 3 -4 -4 8 -13 36
-16 37 -4 0 4 2 17 3 29 2 13 5 26 8 29 8 8 48 -83 48 -110 1 -47 26 -131 39
-134 12 -3 12 -1 1 14 -10 11 -14 38 -12 80 1 35 -2 66 -7 69 -5 3 -7 13 -4
24 3 12 -3 24 -17 34 -17 12 -21 22 -16 41 7 30 5 32 -9 10z"/>
<path d="M933 571 c-5 -19 -61 -51 -90 -51 -16 0 -16 -1 -2 -16 13 -12 23 -13
50 -6 21 6 26 11 14 11 -16 1 -14 5 13 21 19 12 32 28 32 40 0 25 -10 26 -17
1z"/>
<path d="M1120 513 c0 -6 -22 -34 -48 -63 -44 -48 -53 -53 -100 -58 -28 -2
-49 -8 -47 -13 3 -4 13 -8 23 -8 9 0 31 -2 49 -6 23 -4 35 -1 45 10 7 10 23
28 36 42 24 26 55 93 47 101 -3 3 -5 1 -5 -5z"/>
<path d="M983 495 c-17 -19 -16 -20 7 -22 14 -1 20 4 20 18 0 22 -10 24 -27 4z"/>
<path d="M1385 478 c-4 -18 -30 -89 -58 -158 -42 -105 -96 -280 -97 -315 0 -5
7 1 16 13 8 12 16 36 16 52 1 17 4 30 9 30 4 0 5 9 2 20 -3 11 0 20 6 20 6 0
11 11 11 23 0 13 3 27 7 31 4 4 8 13 8 19 0 18 38 111 48 118 5 3 8 9 8 13 -3
14 12 56 19 56 4 0 7 13 8 29 0 17 5 39 11 50 13 24 14 31 2 31 -5 0 -13 -15
-16 -32z"/>
<path d="M1846 501 c-3 -4 7 -17 22 -28 61 -44 70 -42 17 5 -19 17 -36 28 -39
23z"/>
<path d="M2050 493 c1 -20 30 -64 30 -45 0 7 18 13 48 14 l47 1 -49 6 c-27 3
-51 11 -53 18 -3 7 3 10 15 6 11 -2 23 0 26 6 5 7 -5 11 -28 11 -28 0 -36 -4
-36 -17z"/>
<path d="M2233 459 c-37 -23 -45 -36 -12 -19 11 7 27 9 35 6 9 -3 14 1 14 14
0 24 2 24 -37 -1z"/>
<path d="M1120 433 c0 -5 -14 -17 -30 -28 -42 -28 -38 -39 5 -12 29 19 47 47
30 47 -3 0 -5 -3 -5 -7z"/>
<path d="M2115 424 c-13 -14 -29 -16 -88 -11 -56 5 -68 3 -52 -5 27 -16 147
-12 187 7 18 8 25 13 14 10 -10 -3 -24 -1 -31 5 -9 8 -18 6 -30 -6z"/>
<path d="M2065 370 l-50 -7 45 -1 c25 0 54 3 65 8 23 10 12 10 -60 0z"/>
<path d="M2330 282 c0 -34 40 -231 52 -258 6 -13 14 -24 18 -24 8 0 6 32 -3
47 -4 6 -9 28 -12 49 -3 22 -8 50 -11 64 -3 14 -7 34 -9 45 -2 11 -7 31 -13
45 -5 14 -10 29 -10 33 -1 20 -12 19 -12 -1z"/>
</g>
</svg>
